<?xml version="1.0" encoding="UTF-8" standalone="no"?>
<!-- Created with Inkscape (http://www.inkscape.org/) -->

<svg
   width="109.73593mm"
   height="46.682419mm"
   viewBox="0 0 109.73593 46.682419"
   version="1.1"
   id="svg5"
   xmlns:inkscape="http://www.inkscape.org/namespaces/inkscape"
   xmlns:sodipodi="http://sodipodi.sourceforge.net/DTD/sodipodi-0.dtd"
   xmlns="http://www.w3.org/2000/svg"
   xmlns:svg="http://www.w3.org/2000/svg">
  <sodipodi:namedview
     id="namedview7"
     pagecolor="#ffffff"
     bordercolor="#000000"
     borderopacity="0.25"
     inkscape:showpageshadow="2"
     inkscape:pageopacity="0.0"
     inkscape:pagecheckerboard="0"
     inkscape:deskcolor="#d1d1d1"
     inkscape:document-units="mm"
     showgrid="false" />
  <defs
     id="defs2">
    <rect
       x="59.656258"
       y="53.690632"
       width="684.05841"
       height="503.1011"
       id="rect1036" />
  </defs>
  <g
     inkscape:label="Layer 1"
     inkscape:groupmode="layer"
     id="layer1"
     transform="translate(-14.303484,-10.757096)">
    <g
       aria-label="Logo"
       transform="matrix(0.26458333,0,0,0.26458333,-4.2090804,-13.679511)"
       id="text1034"
       style="font-size:192px;white-space:pre;shape-inside:url(#rect1036);stroke-width:2.087">
      <path
         d="m 102.875,203.54633 h 57.28125 v 25.3125 H 69.96875 V 92.358827 H 102.875 Z"
         style="font-weight:900;font-family:Roboto;-inkscape-font-specification:'Roboto Heavy'"
         id="path1727" />
      <path
         d="m 168.59375,177.20258 q 0,-15.1875 5.90625,-27 5.90625,-11.90625 16.96875,-18.28125 11.0625,-6.375 25.96875,-6.375 22.78125,0 35.90625,14.15625 13.125,14.0625 13.125,38.34375 v 1.125 q 0,23.71875 -13.21875,37.6875 -13.125,13.875 -35.625,13.875 -21.65625,0 -34.78125,-12.9375 -13.125,-13.03125 -14.15625,-35.25 z m 31.59375,1.96875 q 0,14.0625 4.40625,20.625 4.40625,6.5625 13.03125,6.5625 16.875,0 17.25,-25.96875 v -3.1875 q 0,-27.28125 -17.4375,-27.28125 -15.84375,0 -17.15625,23.53125 z"
         style="font-weight:900;font-family:Roboto;-inkscape-font-specification:'Roboto Heavy'"
         id="path1729" />
      <path
         d="m 276.6875,177.39008 q 0,-15.375 5.0625,-27.1875 5.0625,-11.8125 14.53125,-18.1875 9.46875,-6.46875 22.03125,-6.46875 15.84375,0 24.75,10.6875 l 1.125,-8.8125 h 28.6875 v 97.59375 q 0,13.40625 -6.28125,23.25 -6.1875,9.9375 -18,15.1875 -11.8125,5.34375 -27.375,5.34375 -11.15625,0 -21.65625,-4.21875 -10.40625,-4.21875 -15.9375,-10.96875 l 13.21875,-18.5625 q 8.8125,10.40625 23.25,10.40625 21,0 21,-21.5625 v -3.1875 Q 332,230.73383 318.125,230.73383 q -18.5625,0 -30,-14.15625 -11.4375,-14.25 -11.4375,-38.0625 z m 31.6875,1.96875 q 0,12.46875 4.6875,19.78125 4.6875,7.21875 13.125,7.21875 10.21875,0 14.90625,-6.84375 v -42.65625 q -4.59375,-6.9375 -14.71875,-6.9375 -8.4375,0 -13.21875,7.59375 -4.78125,7.5 -4.78125,21.84375 z"
         style="font-weight:900;font-family:Roboto;-inkscape-font-specification:'Roboto Heavy'"
         id="path1731" />
      <path
         d="m 386.84375,177.20258 q 0,-15.1875 5.90625,-27 5.90625,-11.90625 16.96875,-18.28125 11.0625,-6.375 25.96875,-6.375 22.78125,0 35.90625,14.15625 13.125,14.0625 13.125,38.34375 v 1.125 q 0,23.71875 -13.21875,37.6875 -13.125,13.875 -35.625,13.875 -21.65625,0 -34.78125,-12.9375 -13.125,-13.03125 -14.15625,-35.25 z m 31.59375,1.96875 q 0,14.0625 4.40625,20.625 4.40625,6.5625 13.03125,6.5625 16.875,0 17.25,-25.96875 v -3.1875 q 0,-27.28125 -17.4375,-27.28125 -15.84375,0 -17.15625,23.53125 z"
         style="font-weight:900;font-family:Roboto;-inkscape-font-specification:'Roboto Heavy'"
         id="path1733" />
    </g>
  </g>
</svg>
