<?xml version="1.0" standalone="no"?><svg xmlns:xlink="http://www.w3.org/1999/xlink" xmlns="http://www.w3.org/2000/svg" viewBox="0 0 1000 642.8571428571429" preserveAspectRatio="xMaxYMax slice"><g transform="scale(1.0351966873706004)"><rect x="0" y="0" width="966" height="621" fill="#000000"/><rect x="138" y="0" width="69" height="69" fill="#827f81"/><rect x="207" y="0" width="69" height="69" fill="#000000"/><rect x="207" y="0" width="34.5" height="34.5" fill="#252425"/><rect x="241.5" y="34.5" width="34.5" height="34.5" fill="#6517d8"/><rect x="345" y="0" width="69" height="69" fill="#000000"/><rect x="345" y="34.5" width="34.5" height="34.5" fill="#605e5f"/><rect x="414" y="0" width="69" height="69" fill="#000000"/><rect x="414" y="0" width="34.5" height="34.5" fill="#6e6b6c"/><rect x="448.5" y="0" width="34.5" height="34.5" fill="#1f0742"/><rect x="448.5" y="34.5" width="34.5" height="34.5" fill="#430f90"/><rect x="483" y="0" width="69" height="69" fill="#000000"/><rect x="483" y="0" width="34.5" height="34.5" fill="#868385"/><rect x="517.5" y="0" width="34.5" height="34.5" fill="#5714bb"/><rect x="690" y="0" width="69" height="69" fill="#390d7a"/><rect x="828" y="0" width="69" height="69" fill="#3b393a"/><rect x="897" y="0" width="69" height="69" fill="#000000"/><rect x="897" y="34.5" width="34.5" height="34.5" fill="#280956"/><rect x="931.5" y="34.5" width="34.5" height="34.5" fill="#180635"/><rect x="0" y="69" width="69" height="69" fill="#373536"/><rect x="276" y="69" width="69" height="69" fill="#9c989b"/><rect x="414" y="69" width="69" height="69" fill="#000000"/><rect x="414" y="69" width="34.5" height="34.5" fill="#170531"/><rect x="483" y="69" width="69" height="69" fill="#6617db"/><rect x="552" y="69" width="69" height="69" fill="#aaa5a8"/><rect x="690" y="69" width="69" height="69" fill="#000000"/><rect x="690" y="69" width="34.5" height="34.5" fill="#6718de"/><rect x="724.5" y="103.5" width="34.5" height="34.5" fill="#2f0b65"/><rect x="759" y="69" width="69" height="69" fill="#000000"/><rect x="759" y="69" width="34.5" height="34.5" fill="#030303"/><rect x="793.5" y="103.5" width="34.5" height="34.5" fill="#6116d2"/><rect x="828" y="69" width="69" height="69" fill="#3d0e83"/><rect x="0" y="138" width="69" height="69" fill="#000000"/><rect x="34.5" y="138" width="34.5" height="34.5" fill="#210847"/><rect x="34.5" y="172.5" width="34.5" height="34.5" fill="#605e5f"/><rect x="69" y="138" width="69" height="69" fill="#070210"/><rect x="138" y="138" width="69" height="69" fill="#000000"/><rect x="172.5" y="138" width="34.5" height="34.5" fill="#8a8789"/><rect x="138" y="172.5" width="34.5" height="34.5" fill="#0f0421"/><rect x="172.5" y="172.5" width="34.5" height="34.5" fill="#250950"/><rect x="207" y="138" width="69" height="69" fill="#000000"/><rect x="207" y="138" width="34.5" height="34.5" fill="#a5a1a3"/><rect x="276" y="138" width="69" height="69" fill="#220849"/><rect x="414" y="138" width="69" height="69" fill="#6c696a"/><rect x="483" y="138" width="69" height="69" fill="#767375"/><rect x="552" y="138" width="69" height="69" fill="#000000"/><rect x="552" y="138" width="34.5" height="34.5" fill="#6116d0"/><rect x="586.5" y="138" width="34.5" height="34.5" fill="#000000"/><rect x="621" y="138" width="69" height="69" fill="#000000"/><rect x="655.5" y="172.5" width="34.5" height="34.5" fill="#5513b7"/><rect x="759" y="138" width="69" height="69" fill="#000000"/><rect x="759" y="138" width="34.5" height="34.5" fill="#49119d"/><rect x="759" y="172.5" width="34.5" height="34.5" fill="#8b8789"/><rect x="793.5" y="172.5" width="34.5" height="34.5" fill="#7e7a7c"/><rect x="828" y="138" width="69" height="69" fill="#000000"/><rect x="828" y="172.5" width="34.5" height="34.5" fill="#5814be"/><rect x="862.5" y="172.5" width="34.5" height="34.5" fill="#827f81"/><rect x="0" y="207" width="69" height="69" fill="#000000"/><rect x="0" y="241.5" width="34.5" height="34.5" fill="#310b6a"/><rect x="34.5" y="241.5" width="34.5" height="34.5" fill="#5d15c8"/><rect x="69" y="207" width="69" height="69" fill="#666364"/><rect x="138" y="207" width="69" height="69" fill="#000000"/><rect x="138" y="207" width="34.5" height="34.5" fill="#2c0a5f"/><rect x="172.5" y="207" width="34.5" height="34.5" fill="#080808"/><rect x="138" y="241.5" width="34.5" height="34.5" fill="#666465"/><rect x="172.5" y="241.5" width="34.5" height="34.5" fill="#320b6c"/><rect x="207" y="207" width="69" height="69" fill="#020105"/><rect x="345" y="207" width="69" height="69" fill="#000000"/><rect x="345" y="207" width="34.5" height="34.5" fill="#6f6c6e"/><rect x="379.5" y="207" width="34.5" height="34.5" fill="#757274"/><rect x="345" y="241.5" width="34.5" height="34.5" fill="#48109a"/><rect x="379.5" y="241.5" width="34.5" height="34.5" fill="#8b8789"/><rect x="414" y="207" width="69" height="69" fill="#000000"/><rect x="414" y="207" width="34.5" height="34.5" fill="#928e90"/><rect x="448.5" y="207" width="34.5" height="34.5" fill="#1a0638"/><rect x="414" y="241.5" width="34.5" height="34.5" fill="#908c8f"/><rect x="448.5" y="241.5" width="34.5" height="34.5" fill="#4e4c4d"/><rect x="483" y="207" width="69" height="69" fill="#000000"/><rect x="483" y="207" width="34.5" height="34.5" fill="#999598"/><rect x="517.5" y="241.5" width="34.5" height="34.5" fill="#4b494a"/><rect x="552" y="207" width="69" height="69" fill="#000000"/><rect x="552" y="207" width="34.5" height="34.5" fill="#16052f"/><rect x="552" y="241.5" width="34.5" height="34.5" fill="#2d0a62"/><rect x="586.5" y="241.5" width="34.5" height="34.5" fill="#272627"/><rect x="621" y="207" width="69" height="69" fill="#8e8a8c"/><rect x="690" y="207" width="69" height="69" fill="#000000"/><rect x="690" y="207" width="34.5" height="34.5" fill="#210847"/><rect x="724.5" y="207" width="34.5" height="34.5" fill="#4e4c4d"/><rect x="724.5" y="241.5" width="34.5" height="34.5" fill="#4a119f"/><rect x="828" y="207" width="69" height="69" fill="#000000"/><rect x="0" y="276" width="69" height="69" fill="#000000"/><rect x="0" y="276" width="34.5" height="34.5" fill="#0e031d"/><rect x="34.5" y="276" width="34.5" height="34.5" fill="#979395"/><rect x="69" y="276" width="69" height="69" fill="#340c6f"/><rect x="138" y="276" width="69" height="69" fill="#000000"/><rect x="138" y="276" width="34.5" height="34.5" fill="#4d12a6"/><rect x="172.5" y="276" width="34.5" height="34.5" fill="#706d6f"/><rect x="138" y="310.5" width="34.5" height="34.5" fill="#4f4d4f"/><rect x="172.5" y="310.5" width="34.5" height="34.5" fill="#5f16cd"/><rect x="207" y="276" width="69" height="69" fill="#000000"/><rect x="241.5" y="310.5" width="34.5" height="34.5" fill="#403e3f"/><rect x="276" y="276" width="69" height="69" fill="#300b68"/><rect x="414" y="276" width="69" height="69" fill="#000000"/><rect x="448.5" y="276" width="34.5" height="34.5" fill="#3e0e86"/><rect x="414" y="310.5" width="34.5" height="34.5" fill="#2f2e2f"/><rect x="448.5" y="310.5" width="34.5" height="34.5" fill="#444243"/><rect x="621" y="276" width="69" height="69" fill="#2a292a"/><rect x="690" y="276" width="69" height="69" fill="#5b15c4"/><rect x="759" y="276" width="69" height="69" fill="#100424"/><rect x="828" y="276" width="69" height="69" fill="#0c0319"/><rect x="0" y="345" width="69" height="69" fill="#000000"/><rect x="0" y="345" width="34.5" height="34.5" fill="#020003"/><rect x="34.5" y="345" width="34.5" height="34.5" fill="#2d2c2d"/><rect x="0" y="379.5" width="34.5" height="34.5" fill="#0e031e"/><rect x="34.5" y="379.5" width="34.5" height="34.5" fill="#1c063c"/><rect x="207" y="345" width="69" height="69" fill="#070707"/><rect x="345" y="345" width="69" height="69" fill="#000000"/><rect x="345" y="345" width="34.5" height="34.5" fill="#9e9a9c"/><rect x="345" y="379.5" width="34.5" height="34.5" fill="#5513b7"/><rect x="379.5" y="379.5" width="34.5" height="34.5" fill="#6016cf"/><rect x="414" y="345" width="69" height="69" fill="#190635"/><rect x="552" y="345" width="69" height="69" fill="#000000"/><rect x="552" y="345" width="34.5" height="34.5" fill="#0e031d"/><rect x="586.5" y="345" width="34.5" height="34.5" fill="#3f0e87"/><rect x="552" y="379.5" width="34.5" height="34.5" fill="#444243"/><rect x="621" y="345" width="69" height="69" fill="#000000"/><rect x="621" y="345" width="34.5" height="34.5" fill="#2c0a5f"/><rect x="655.5" y="379.5" width="34.5" height="34.5" fill="#6016cf"/><rect x="690" y="345" width="69" height="69" fill="#313031"/><rect x="897" y="345" width="69" height="69" fill="#5d15c7"/><rect x="0" y="414" width="69" height="69" fill="#6517da"/><rect x="69" y="414" width="69" height="69" fill="#000000"/><rect x="103.5" y="414" width="34.5" height="34.5" fill="#595658"/><rect x="69" y="448.5" width="34.5" height="34.5" fill="#1d1c1c"/><rect x="138" y="414" width="69" height="69" fill="#13042a"/><rect x="207" y="414" width="69" height="69" fill="#5513b6"/><rect x="276" y="414" width="69" height="69" fill="#686566"/><rect x="483" y="414" width="69" height="69" fill="#000000"/><rect x="483" y="414" width="34.5" height="34.5" fill="#726f71"/><rect x="517.5" y="414" width="34.5" height="34.5" fill="#737072"/><rect x="483" y="448.5" width="34.5" height="34.5" fill="#191819"/><rect x="552" y="414" width="69" height="69" fill="#000000"/><rect x="552" y="414" width="34.5" height="34.5" fill="#1a1a1a"/><rect x="586.5" y="414" width="34.5" height="34.5" fill="#302f2f"/><rect x="552" y="448.5" width="34.5" height="34.5" fill="#1b063b"/><rect x="621" y="414" width="69" height="69" fill="#171717"/><rect x="759" y="414" width="69" height="69" fill="#1c063d"/><rect x="828" y="414" width="69" height="69" fill="#06010d"/><rect x="897" y="414" width="69" height="69" fill="#06010e"/><rect x="0" y="483" width="69" height="69" fill="#201f1f"/><rect x="69" y="483" width="69" height="69" fill="#0b0b0b"/><rect x="138" y="483" width="69" height="69" fill="#47109a"/><rect x="276" y="483" width="69" height="69" fill="#2f0b65"/><rect x="483" y="483" width="69" height="69" fill="#121212"/><rect x="552" y="483" width="69" height="69" fill="#340c6f"/><rect x="759" y="483" width="69" height="69" fill="#393839"/><rect x="828" y="483" width="69" height="69" fill="#8f8b8e"/><rect x="897" y="483" width="69" height="69" fill="#07020e"/><rect x="207" y="552" width="69" height="69" fill="#000000"/><rect x="207" y="552" width="34.5" height="34.5" fill="#16052f"/><rect x="207" y="586.5" width="34.5" height="34.5" fill="#928e91"/><rect x="276" y="552" width="69" height="69" fill="#000000"/><rect x="276" y="552" width="34.5" height="34.5" fill="#250950"/><rect x="310.5" y="552" width="34.5" height="34.5" fill="#280957"/><rect x="276" y="586.5" width="34.5" height="34.5" fill="#5513b7"/><rect x="414" y="552" width="69" height="69" fill="#5614b9"/><rect x="483" y="552" width="69" height="69" fill="#000000"/><rect x="483" y="552" width="34.5" height="34.5" fill="#3f0e88"/><rect x="517.5" y="552" width="34.5" height="34.5" fill="#181717"/><rect x="552" y="552" width="69" height="69" fill="#000000"/><rect x="586.5" y="552" width="34.5" height="34.5" fill="#737072"/><rect x="552" y="586.5" width="34.5" height="34.5" fill="#535152"/><rect x="586.5" y="586.5" width="34.5" height="34.5" fill="#270954"/><rect x="621" y="552" width="69" height="69" fill="#000000"/><rect x="621" y="552" width="34.5" height="34.5" fill="#7e7b7d"/><rect x="655.5" y="552" width="34.5" height="34.5" fill="#5e16cb"/><rect x="655.5" y="586.5" width="34.5" height="34.5" fill="#020202"/><rect x="690" y="552" width="69" height="69" fill="#000000"/><rect x="724.5" y="552" width="34.5" height="34.5" fill="#938f91"/><rect x="690" y="586.5" width="34.5" height="34.5" fill="#6b686a"/><rect x="759" y="552" width="69" height="69" fill="#000000"/><rect x="759" y="552" width="34.5" height="34.5" fill="#6c696b"/><rect x="793.5" y="552" width="34.5" height="34.5" fill="#030108"/><rect x="759" y="586.5" width="34.5" height="34.5" fill="#5213b0"/><rect x="897" y="552" width="69" height="69" fill="#000000"/><rect x="897" y="552" width="34.5" height="34.5" fill="#9c979a"/><rect x="931.5" y="552" width="34.5" height="34.5" fill="#474546"/><rect x="897" y="586.5" width="34.5" height="34.5" fill="#6b686a"/><rect x="931.5" y="586.5" width="34.5" height="34.5" fill="#4d12a6"/></g></svg>